<mxfile host="Electron" agent="Mozilla/5.0 (Macintosh; Intel Mac OS X 10_15_7) AppleWebKit/537.36 (KHTML, like Gecko) draw.io/26.0.9 Chrome/128.0.6613.186 Electron/32.2.5 Safari/537.36" version="26.0.9">
  <diagram name="Page-1" id="NpbrAOHmG6bDPYJwvkna">
    <mxGraphModel dx="1012" dy="681" grid="1" gridSize="10" guides="1" tooltips="1" connect="1" arrows="1" fold="1" page="1" pageScale="1" pageWidth="1169" pageHeight="827" math="0" shadow="0">
      <root>
        <mxCell id="0" />
        <mxCell id="1" parent="0" />
        <mxCell id="63hBCq30LjuqY_IQBn-c-2" value="" style="shape=image;editableCssRules=.*;verticalLabelPosition=bottom;labelBackgroundColor=default;verticalAlign=top;aspect=fixed;imageAspect=0;image=data:image/svg+xml,PHN2ZyB4bWxucz0iaHR0cDovL3d3dy53My5vcmcvMjAwMC9zdmciIHZpZXdCb3g9Ii0wLjUgLTAuNSAzOC40MzcgNDgiIGhlaWdodD0iNDgiIHdpZHRoPSIzOC40MzciPiYjeGE7CSAgPHN0eWxlIHR5cGU9InRleHQvY3NzIj4uc3QwIHsgc3RvcC1jb2xvcjogcmdiKDM1LCAxNDksIDI1NSk7IH0gLnN0MSB7IHN0b3AtY29sb3I6IHJnYigwLCA4NywgMjEwKTsgfSA8L3N0eWxlPiYjeGE7CTxkZWZzPiYjeGE7CQk8bGluZWFyR3JhZGllbnQgZ3JhZGllbnRVbml0cz0idXNlclNwYWNlT25Vc2UiIHkyPSIzNS42ODciIHgyPSIzOC45NjIiIHkxPSI2LjMxMyIgeDE9IjIuOTg2IiBpZD0iQSI+JiN4YTsJCQk8c3RvcCBjbGFzcz0ic3QwIi8+JiN4YTsJCQk8c3RvcCBjbGFzcz0ic3QxIiBvZmZzZXQ9IjEiLz4mI3hhOwkJPC9saW5lYXJHcmFkaWVudD4mI3hhOwk8L2RlZnM+JiN4YTsJPHBhdGggZmlsbD0idXJsKCNBKSIgZD0iTTM2LjQzNyA5LjI1YzEgLjQzNyAxLjUgMS4xODcgMS41IDIuMjV2MjguNzgxYTIuNDMgMi40MyAwIDAgMS0uNzUgMS43ODFjLS40MzcuNDM4LTEgLjY1Ni0xLjY4Ny42NTZzLTEuMjgxLS4yMTktMS43ODEtLjY1NmMtLjQzNy0uNS0uNjU2LTEuMDkzLS42NTYtMS43ODFWMTMuMDk0TDExLjU5NCA0LjU2MyA3Ljc1IDYuNDM4bDE5LjAzMSA3LjU5NGMuNS4xODguODc1LjUgMS4xMjUuOTM4LjI1LjM3NS4zNzUuODEyLjM3NSAxLjMxM3YyOC43ODFjMCAuODc1LS4zNDQgMS41NjMtMS4wMzEgMi4wNjMtLjMxMy4yNS0uNzUuMzc1LTEuMzEzLjM3NS0uMjUgMC0uNTYyLS4wNjMtLjkzNy0uMTg4bC03LjIxOS0yLjkwNmMtMS0uMzc1LTEuNS0xLjA5NC0xLjUtMi4xNTYgMC0uMjUuMDYyLS41NjMuMTg4LS45MzguMTg4LS41LjQ2OS0uODc1Ljg0NC0xLjEyNWEyLjc5IDIuNzkgMCAwIDEgMS40MDYtLjM3NWMuMTg4IDAgLjQ2OS4wNjMuODQ0LjE4OGwzLjkzOCAxLjU5NFYxNy45NjlMNC4yODEgMTAuMjgxdjEwLjc4MWMwIC42ODgtLjIxOSAxLjI4MS0uNjU2IDEuNzgxLS40MzcuNDM3LTEgLjY1Ni0xLjY4Ny42NTZzLTEuMjgxLS4yMTktMS43ODEtLjY1NmMtLjQzNy0uNS0uNjU2LTEuMDk0LS42NTYtMS43ODFWNi43MTljMC0xIC4zNDQtMS42NTYgMS4wMzEtMS45NjlsOS45MzgtNC45NjljLjMxMy0uMTg3LjY1Ni0uMjgxIDEuMDMxLS4yODEuMzEzIDAgLjU2My4wMzEuNzUuMDk0LjA2Mi4wNjIuMTI1LjA5NC4xODguMDk0ek0xNy45NjkgMjYuNTk0Yy41LjUuNzUgMS4wNjMuNzUgMS42ODhzLS4yNSAxLjE4Ny0uNzUgMS42ODhsLTkuNTYyIDkuNjU2Yy0uNDM3LjQzNy0xIC42NTYtMS42ODcuNjU2cy0xLjI1LS4yMTktMS42ODctLjY1NkwuMjUgMzQuNzVjLS41LS41LS43NS0xLjA2My0uNzUtMS42ODhzLjI1LTEuMTg3Ljc1LTEuNjg3Yy40MzctLjQzOCAxLS42NTYgMS42ODgtLjY1NnMxLjI1LjIxOSAxLjY4OC42NTZsMy4wOTQgMy4wOTQgNy44NzUtNy44NzVjLjQzNy0uNDM3IDEtLjY1NiAxLjY4OC0uNjU2czEuMjUuMjE5IDEuNjg4LjY1NnoiLz4mI3hhOzwvc3ZnPg==;flipH=0;" vertex="1" parent="1">
          <mxGeometry x="361" y="260" width="38" height="48" as="geometry" />
        </mxCell>
        <mxCell id="63hBCq30LjuqY_IQBn-c-3" value="" style="shape=image;editableCssRules=.*;verticalLabelPosition=bottom;labelBackgroundColor=default;verticalAlign=top;aspect=fixed;imageAspect=0;image=data:image/svg+xml,PHN2ZyB4bWxucz0iaHR0cDovL3d3dy53My5vcmcvMjAwMC9zdmciIHZpZXdCb3g9Ii0wLjUgLTAuNSA0Ny45MDcgNDMuMjA3IiBoZWlnaHQ9IjQzLjIwNyIgd2lkdGg9IjQ3LjkwNyI+JiN4YTsJICA8c3R5bGUgdHlwZT0idGV4dC9jc3MiPi5zdDAgeyBzdG9wLWNvbG9yOiByZ2IoMzUsIDE0OSwgMjU1KTsgfSAuc3QxIHsgc3RvcC1jb2xvcjogcmdiKDAsIDg3LCAyMTApOyB9IDwvc3R5bGU+JiN4YTsJPGRlZnM+JiN4YTsJCTxsaW5lYXJHcmFkaWVudCBncmFkaWVudFVuaXRzPSJ1c2VyU3BhY2VPblVzZSIgeTI9IjQyLjcwNyIgeDI9IjIzLjQ1NCIgeTE9Ii0uNSIgeDE9IjIzLjQ1NCIgaWQ9IkEiPiYjeGE7CQkJPHN0b3AgY2xhc3M9InN0MCIvPiYjeGE7CQkJPHN0b3AgY2xhc3M9InN0MSIgb2Zmc2V0PSIxIi8+JiN4YTsJCTwvbGluZWFyR3JhZGllbnQ+JiN4YTsJPC9kZWZzPiYjeGE7CTxwYXRoIGZpbGw9InVybCgjQSkiIGQ9Ik00Ni40NjggMTQuNDQ1Yy4yNTIuMjUyLjQ2OC41MzEuNjU3Ljg0M2ExLjk3IDEuOTcgMCAwIDEgLjI4MiAxLjAzMnYxOS4xMjVjMCAxLjMxNC0uNjI3IDIuMTI3LTEuODc1IDIuNDM5bC0yNCA0Ljc4MmMtLjgxMy4xMjMtMS40NC0uMDMtMS44NzUtLjQ3MS0uMjUzLS4yNTMtLjQ3My0uNTM2LS42NTctLjg0My0uMTczLS4zMTgtLjI2OS0uNjcxLS4yODItMS4wMzJWMjEuMTAyYzAtMS4zNzQuNjI3LTIuMTU3IDEuODc1LTIuMzQzbDI0LTQuNzgyYy4zMTIgMCAuNjI3LjAzLjkzOS4wOTNhMS4yNyAxLjI3IDAgMCAxIC45MzYuMzc1em0tMy44NDMgNC43ODJMMjMuNSAyMy4wN3YxNC4zNDNsMTkuMTI1LTMuODR6TTM3Ljg0MyA4LjYzNGMuMTIuNjUtLjAxNCAxLjMyMS0uMzc1IDEuODc1LS4xNTMuMjc2LS4zNjguNTEzLS42MjkuNjkycy0uNTU5LjI5NC0uODcxLjMzN2wtMjIuMDMyIDQuMzE0djE3LjI1YzAgLjY5LS4yNDkgMS4yNTEtLjc1IDEuNjg5LS4yMjIuMjE4LS40ODYuMzg3LS43NzYuNDk5YTIuMjkgMi4yOSAwIDAgMS0uOTEuMTUyYy0xLjU2IDAtMi4zNDMtLjc4LTIuMzQzLTIuMzQzVjEzLjk3N2MwLTEuMzE0LjYyNC0yLjEyNCAxLjg3NS0yLjQzOWwyNC00Ljc3OWMuNTYxLS4xMjYgMS4xMjUuMDMgMS42ODYuNDY4LjYyNy4zNzUgMS4wMDIuODQzIDEuMTI1IDEuNDA3em0tOS41NjEtNy4xMjVjLjEyMy41NjEgMCAxLjE1NS0uMzc1IDEuNzc5LS4xNTMuMjc3LS4zNjguNTE0LS42MjguNjkzcy0uNTU5LjI5NS0uODcyLjMzOUw0LjI4MiA4LjYzNHYxNy4yNWMwIDEuNjIzLS43OCAyLjQzNi0yLjM0NiAyLjQzNi0uNjU0LjAxMS0xLjI4OS0uMjIzLTEuNzc5LS42NTctLjQzOC0uNDM1LS42NTctMS4wMjktLjY1Ny0xLjc3OVY2Ljc1OWMwLTEuMzE0LjY1Ny0yLjEyNyAxLjk2OC0yLjQzOUwyNS4zNzUtLjQ2MmMuMzEzLS4wNi42MzYtLjA0OS45NDUuMDMycy41OTUuMjMyLjgzNy40MzljLjYyNC4zNzUuOTk5Ljg3MyAxLjEyNSAxLjV6Ii8+JiN4YTs8L3N2Zz4=;flipH=0;" vertex="1" parent="1">
          <mxGeometry x="506" y="262.5" width="48" height="43" as="geometry" />
        </mxCell>
        <mxCell id="63hBCq30LjuqY_IQBn-c-4" value="" style="shape=image;editableCssRules=.*;verticalLabelPosition=bottom;labelBackgroundColor=default;verticalAlign=top;aspect=fixed;imageAspect=0;image=data:image/svg+xml,PHN2ZyB4bWxucz0iaHR0cDovL3d3dy53My5vcmcvMjAwMC9zdmciIHZpZXdCb3g9Ii0wLjUgLTAuNSAyOCAyOCIgaGVpZ2h0PSIyOCIgd2lkdGg9IjI4Ij4mI3hhOwkgIDxzdHlsZSB0eXBlPSJ0ZXh0L2NzcyI+LnN0MCB7IHN0b3AtY29sb3I6IHJnYigzNSwgMTQ5LCAyNTUpOyB9IC5zdDEgeyBzdG9wLWNvbG9yOiByZ2IoMCwgODcsIDIxMCk7IH0gPC9zdHlsZT4mI3hhOwk8ZGVmcz4mI3hhOwkJPGxpbmVhckdyYWRpZW50IGdyYWRpZW50VW5pdHM9InVzZXJTcGFjZU9uVXNlIiB5Mj0iMjUuMzA5IiB4Mj0iMjMuNDU0IiB5MT0iMy40NzQiIHgxPSIyLjAzOSIgaWQ9IkEiPiYjeGE7CQkJPHN0b3AgY2xhc3M9InN0MCIvPiYjeGE7CQkJPHN0b3AgY2xhc3M9InN0MSIgb2Zmc2V0PSIxIi8+JiN4YTsJCTwvbGluZWFyR3JhZGllbnQ+JiN4YTsJPC9kZWZzPiYjeGE7CTxwYXRoIGZpbGw9InVybCgjQSkiIGQ9Ik0yMS43NDcgMTMuMmExMS4zNSAxMS4zNSAwIDAgMSA0LjE2NCAzLjk0NWMxLjA1OSAxLjY4IDEuNTg5IDMuNTc5IDEuNTg5IDUuNjk5djMuMTIzYzAgMS4wMjItLjUzIDEuNTM0LTEuNTg5IDEuNTM0SDcuMjgyYy0uNDc1IDAtLjg1OS0uMTQ2LTEuMTUyLS40MzgtLjI5MS0uMjU2LS40MzgtLjYyMS0uNDM4LTEuMDk2di0xLjU4OUgxLjAzNGMtMS4wMjIgMC0xLjUzNC0uNTEyLTEuNTM0LTEuNTM0VjE5LjcyYTcuMjcgNy4yNyAwIDAgMSAxLjI2MS00LjE2NmMuODAzLTEuMjA5IDEuOTIxLTIuMTc1IDMuMjMzLTIuNzkzLS40NjQtLjUyOC0uODE4LTEuMTQzLTEuMDQyLTEuODA5YTYuODggNi44OCAwIDAgMS0uMzMtMi4wODFjMC0uODc3LjE2NS0xLjY4LjQ5NC0yLjQxMWE2LjE3IDYuMTcgMCAwIDEgMS4zMTUtMS45NzNjLjU2OC0uNTczIDEuMjM3LTEuMDM3IDEuOTczLTEuMzY5YTYuMDYgNi4wNiAwIDAgMSAyLjQxMS0uNDkzYy4yNTYgMCAuNDkzLjAxOC43MTIuMDUzYTIuNjUgMi42NSAwIDAgMSAuNzEyLjExQTcuNDEgNy40MSAwIDAgMSAxMi45MjYuMzc3YzEuMTM0LS41ODUgMi4zOTQtLjg4NiAzLjY3LS44NzcgMS4wOTYgMCAyLjEyLjIwMiAzLjA2OC42MDNzMS43NzEuOTY4IDIuNDY1IDEuNjk5Yy42OTQuNjk0IDEuMjQzIDEuNTE1IDEuNjQ1IDIuNDY1LjQwMy45MTIuNjAzIDEuOTE4LjYwMyAzLjAxNC4wMDMgMS4xNTItLjIzOSAyLjI5MS0uNzEyIDMuMzQyLS40MjIgMS4wMDEtMS4wOCAxLjg4NS0xLjkxOCAyLjU3NnpNMTYuNTk0IDIuNjIzYy0xLjMxNSAwLTIuNDI4LjQ1Ni0zLjM0MiAxLjM3MS0uODc3Ljg3Ny0xLjMxNSAxLjk3My0xLjMxNSAzLjI4OHMuNDM4IDIuNDI4IDEuMzE1IDMuMzQyYy45MTIuODc3IDIuMDI3IDEuMzE1IDMuMzQyIDEuMzE1czIuNDExLS40MzggMy4yODgtMS4zMTVhNC41NCA0LjU0IDAgMCAwIDEuMzY5LTMuMzQyYzAtMS4zMTUtLjQ1Ni0yLjQxMS0xLjM2OC0zLjI4OC0uODc3LS45MTQtMS45NzQtMS4zNzEtMy4yODktMS4zNzF6TTguNjUxIDUuNzQ5Yy0uODQyIDAtMS41NzEuMzEtMi4xOTIuOTMxLS41ODQuNTg0LS44NzcgMS4zMTUtLjg3NyAyLjE5MmEzLjA5IDMuMDkgMCAwIDAgLjg3NyAyLjE5MiAzLjA5IDMuMDkgMCAwIDAgMi4xOTIuODc3aDEuNzUzYTcuOTggNy45OCAwIDAgMS0xLjE1LTIuMTM3IDcuNjMgNy42MyAwIDAgMS0uNDM4LTIuNTJ2LS43NzFhNC4wMSA0LjAxIDAgMCAxIC4xNjMtLjc2NmgtLjMyOHpNMi42MjMgMjEuMzExaDMuMjMzYy4zMy0yLjUyMSAxLjM2OS00LjYwMyAzLjEyMy02LjI0N0g3LjI4M2MtMS4zMTUgMC0yLjQzLjQ1Ni0zLjM0NCAxLjM2OS0uODc3Ljg3Ny0xLjMxNSAxLjk3NC0xLjMxNSAzLjI4OXptMjEuNzU0IDEuNTM0YTcuNCA3LjQgMCAwIDAtLjYwMy0zLjAxNGMtLjM4My0uOTIxLS45NDItMS43NTgtMS42NDUtMi40NjVhNy4yNiA3LjI2IDAgMCAwLTIuNDY1LTEuNjk5Yy0uOTcxLS40MDYtMi4wMTUtLjYxMS0zLjA2OC0uNjAzLTEuMDk2IDAtMi4xMTguMjAyLTMuMDY4LjYwMy0uOTEyLjQwMy0xLjczNi45NjgtMi40NjUgMS42OTlhNy42NyA3LjY3IDAgMCAwLTEuNjQ1IDIuNDY1IDcuNCA3LjQgMCAwIDAtLjYwMSAzLjAxNHYxLjUzNGgxNS41NjF6Ii8+JiN4YTs8L3N2Zz4=;flipH=0;" vertex="1" parent="1">
          <mxGeometry x="950" y="260" width="48" height="48" as="geometry" />
        </mxCell>
        <mxCell id="63hBCq30LjuqY_IQBn-c-6" value="" style="shape=image;editableCssRules=.*;verticalLabelPosition=bottom;labelBackgroundColor=default;verticalAlign=top;aspect=fixed;imageAspect=0;image=data:image/svg+xml,PHN2ZyB4bWxucz0iaHR0cDovL3d3dy53My5vcmcvMjAwMC9zdmciIHZpZXdCb3g9Ii0wLjUgLTAuNSAyOCAyNy44OSIgaGVpZ2h0PSIyNy44OSIgd2lkdGg9IjI4Ij4mI3hhOwkgIDxzdHlsZSB0eXBlPSJ0ZXh0L2NzcyI+LnN0MCB7IHN0b3AtY29sb3I6IHJnYigzNSwgMTQ5LCAyNTUpOyB9IC5zdDEgeyBzdG9wLWNvbG9yOiByZ2IoMCwgODcsIDIxMCk7IH0gPC9zdHlsZT4mI3hhOwk8ZGVmcz4mI3hhOwkJPGxpbmVhckdyYWRpZW50IGdyYWRpZW50VW5pdHM9InVzZXJTcGFjZU9uVXNlIiB5Mj0iMjQuOTU0IiB4Mj0iMjUuMjEyIiB5MT0iMy42MjUiIHgxPSIzLjM3OSIgaWQ9IkEiPiYjeGE7CQkJPHN0b3AgY2xhc3M9InN0MCIvPiYjeGE7CQkJPHN0b3AgY2xhc3M9InN0MSIgb2Zmc2V0PSIxIi8+JiN4YTsJCTwvbGluZWFyR3JhZGllbnQ+JiN4YTsJPC9kZWZzPiYjeGE7CTxwYXRoIGZpbGw9InVybCgjQSkiIGQ9Ik0tLjA2MiAyNS4wMzNjLS4yOTEuMjkzLS40MzguNjAzLS40MzguOTMxLjAwMi4xODYuMDQyLjM2OS4xMTcuNTM5cy4xODUuMzIyLjMyMS40NDhjLjEyNi4xMzcuMjc5LjI0Ni40NDguMzIxcy4zNTMuMTE1LjUzOS4xMTdjLjMyOCAwIC42MzgtLjE0Ny45MzEtLjQzOGwzLjg5MS0zLjg5MWMxLjEzMy45ODcgMi40MTEgMS40NiAzLjgzNSAxLjQyNSAxLjQyNi0uMDc0IDIuNjY3LS42NCAzLjcyNi0xLjcwMWwxLjI2MS0xLjI1OWMuMjkzLS4yOTMuNDM4LS42MDMuNDM4LS45MzEgMC0uMzY2LS4xNDYtLjY5NC0uNDM4LS45ODdsLTcuMTI0LTcuMTIyYTEuMzYgMS4zNiAwIDAgMC0uOTg1LS40MzhjLS4zNjUgMC0uNjk0LjE0Ni0uOTg3LjQzOGwtMS4yNTkgMS4yNTljLTEuMDU5IDEuMDYxLTEuNjA4IDIuMjg1LTEuNjQ1IDMuNjcyLS4wNzIgMS4zNTIuMzQ3IDIuNTc2IDEuMjYxIDMuNjcyem0xMS4yOS00LjMyOWMtLjU4Ni41NDktMS4yNDMuODIyLTEuOTczLjgyMnMtMS4zODktLjI3My0xLjk3My0uODIybC0xLjA5Ni0xLjA5NmMtLjU0OS0uNTg0LS44MjItMS4yNDEtLjgyMi0xLjk3M3MuMjc0LTEuMzg3LjgyMi0xLjk3M2wuMjcyLS4yNzRMMTEuNSAyMC40M2wtLjI3NC4yNzN6bTIuNjMtNC44NzZjLjEyNi4xMzYuMjc4LjI0NS40NDcuMzIxYTEuMzYgMS4zNiAwIDAgMCAuNTM4LjExN2MuMzMgMCAuNjQtLjE0NS45MzMtLjQzOGwyLjUxOC0yLjUyMSAxLjA5NiAxLjA5NmMuMTI2LjEzNi4yNzkuMjQ2LjQ0OC4zMjFzLjM1My4xMTUuNTM5LjExN2ExLjI1IDEuMjUgMCAwIDAgLjk4Ni0uNDM4bDEuMjYxLTEuMjA1YzEuMDU5LTEuMDU5IDEuNjI1LTIuMjY1IDEuNjk5LTMuNjE3YTUuNjcgNS42NyAwIDAgMC0xLjE1Mi0zLjc4bDMuODkxLTMuODkxQTEuMzYgMS4zNiAwIDAgMCAyNy41LjkyNGMwLS4zNjUtLjE0NS0uNjk0LS40MzgtLjk4N1MyNi40NTgtLjUgMjYuMTMxLS41Yy0uMzY2IDAtLjY5NC4xNDctLjk4Ny40MzhsLTMuODg5IDMuODkzYy0xLjA3MS0uODk0LTIuNDQzLTEuMzQ2LTMuODM2LTEuMjYyLTEuNDI2LjA3NC0yLjY2NS42NC0zLjcyNiAxLjcwMWwtMS4yNjEgMS4yNTljLS4xMjguMTMtLjIyOC4yODQtLjI5NC40NTRzLS4wOTcuMzUxLS4wOS41MzNjLS4wMDMuMTczLjAzLjM0NS4wOTcuNTA1cy4xNjUuMzA0LjI4OS40MjVsMS4xNDkgMS4xNTItMi41MiAyLjQ2NWMtLjI5My4yOTMtLjQzOC42MjEtLjQzOC45ODdhMS4zNiAxLjM2IDAgMCAwIC4xMTcuNTM4Yy4wNzUuMTY5LjE4NS4zMjIuMzIxLjQ0Ny4xMjYuMTM2LjI3OS4yNDYuNDQ4LjMyMWExLjM2IDEuMzYgMCAwIDAgLjUzOS4xMTdjLjE4NS0uMDAyLjM2OC0uMDQyLjUzOC0uMTE3cy4zMjItLjE4NS40NDctLjMyMWwyLjQ2NS0yLjUyMS44NzcuODc3LTIuNTE4IDIuNDY1Yy0uMjkzLjI5My0uNDM4LjYyMS0uNDM4Ljk4N2ExLjM2IDEuMzYgMCAwIDAgLjExNy41MzhjLjA3NS4xNjkuMTg0LjMyMi4zMjEuNDQ3em0xLjUzNC05LjMxNmwuMjc0LS4zMjhhMi42OSAyLjY5IDAgMCAxIDEuOTczLS44MjJjLjczMSAwIDEuMzY5LjI3NCAxLjkxOC44MjJsMS4wOTYgMS4xNWMuNTg0LjU0OS44NzcgMS4yMDYuODc3IDEuOTczIDAgLjczMS0uMjkzIDEuMzcxLS44NzcgMS45MThsLS4yNzMuMjc0LTQuOTg3LTQuOTg1eiIvPiYjeGE7PC9zdmc+;direction=north;flipH=0;" vertex="1" parent="1">
          <mxGeometry x="210" y="255" width="48" height="48" as="geometry" />
        </mxCell>
        <mxCell id="63hBCq30LjuqY_IQBn-c-8" value="" style="shape=image;verticalLabelPosition=bottom;verticalAlign=top;imageAspect=0;aspect=fixed;image=data:image/svg+xml,PHN2ZyB4bWxucz0iaHR0cDovL3d3dy53My5vcmcvMjAwMC9zdmciIGZpbGw9Im5vbmUiIHZpZXdCb3g9IjAgMCAxNiAxNiIgaGVpZ2h0PSIxNiIgd2lkdGg9IjE2Ij4mI3hhOzxwYXRoIGZpbGw9InVybCgjcGFpbnQwX2xpbmVhcl85NjNfNTYxKSIgZD0iTTE1LjE4NzUgMTFDMTUuNDE2NyAxMSAxNS42MDQyIDExLjA4MzMgMTUuNzUgMTEuMjVDMTUuOTE2NyAxMS4zOTU4IDE2IDExLjU4MzMgMTYgMTEuODEyNVYxNC4xODc1QzE2IDE0LjQxNjcgMTUuOTE2NyAxNC42MTQ2IDE1Ljc1IDE0Ljc4MTJDMTUuNjA0MiAxNC45MjcxIDE1LjQxNjcgMTUgMTUuMTg3NSAxNUgxMi44MTI1QzEyLjU4MzMgMTUgMTIuMzg1NCAxNC45MjcxIDEyLjIxODggMTQuNzgxMkMxMi4wNzI5IDE0LjYxNDYgMTIgMTQuNDE2NyAxMiAxNC4xODc1VjExLjgxMjVDMTIgMTEuNTgzMyAxMi4wNzI5IDExLjM5NTggMTIuMjE4OCAxMS4yNUMxMi4zODU0IDExLjA4MzMgMTIuNTgzMyAxMSAxMi44MTI1IDExSDEzLjQwNjJWOS44MTI1QzEzLjQwNjIgOS42NjY2NyAxMy4zMzMzIDkuNTkzNzUgMTMuMTg3NSA5LjU5Mzc1SDguODEyNVYxMUg5LjE4NzVDOS40MTY2NyAxMSA5LjYwNDE3IDExLjA4MzMgOS43NSAxMS4yNUM5LjkxNjY3IDExLjM5NTggMTAgMTEuNTgzMyAxMCAxMS44MTI1VjE0LjE4NzVDMTAgMTQuNDE2NyA5LjkxNjY3IDE0LjYxNDYgOS43NSAxNC43ODEyQzkuNjA0MTcgMTQuOTI3MSA5LjQxNjY3IDE1IDkuMTg3NSAxNUg2LjgxMjVDNi41ODMzMyAxNSA2LjM4NTQyIDE0LjkyNzEgNi4yMTg3NSAxNC43ODEyQzYuMDcyOTIgMTQuNjE0NiA2IDE0LjQxNjcgNiAxNC4xODc1VjExLjgxMjVDNiAxMS41ODMzIDYuMDcyOTIgMTEuMzk1OCA2LjIxODc1IDExLjI1QzYuMzg1NDIgMTEuMDgzMyA2LjU4MzMzIDExIDYuODEyNSAxMUg3LjE4NzVWOS41OTM3NUgyLjgxMjVDMi42NjY2NyA5LjU5Mzc1IDIuNTkzNzUgOS42NjY2NyAyLjU5Mzc1IDkuODEyNVYxMUgzLjE4NzVDMy40MTY2NyAxMSAzLjYwNDE3IDExLjA4MzMgMy43NSAxMS4yNUMzLjkxNjY3IDExLjM5NTggNCAxMS41ODMzIDQgMTEuODEyNVYxNC4xODc1QzQgMTQuNDE2NyAzLjkxNjY3IDE0LjYxNDYgMy43NSAxNC43ODEyQzMuNjA0MTcgMTQuOTI3MSAzLjQxNjY3IDE1IDMuMTg3NSAxNUgwLjgxMjVDMC41ODMzMzMgMTUgMC4zODU0MTcgMTQuOTI3MSAwLjIxODc1IDE0Ljc4MTJDMC4wNzI5MTY3IDE0LjYxNDYgMCAxNC40MTY3IDAgMTQuMTg3NVYxMS44MTI1QzAgMTEuNTgzMyAwLjA3MjkxNjcgMTEuMzk1OCAwLjIxODc1IDExLjI1QzAuMzg1NDE3IDExLjA4MzMgMC41ODMzMzMgMTEgMC44MTI1IDExSDFWOS44MTI1QzEgOS4zMTI1IDEuMTc3MDggOC44ODU0MiAxLjUzMTI1IDguNTMxMjVDMS44ODU0MiA4LjE3NzA4IDIuMzEyNSA4IDIuODEyNSA4SDcuMTg3NVY2SDQuODEyNUM0LjU4MzMzIDYgNC4zODU0MiA1LjkyNzA4IDQuMjE4NzUgNS43ODEyNUM0LjA3MjkyIDUuNjE0NTggNCA1LjQxNjY3IDQgNS4xODc1VjEuODEyNUM0IDEuNTgzMzMgNC4wNzI5MiAxLjM5NTgzIDQuMjE4NzUgMS4yNUM0LjM4NTQyIDEuMDgzMzMgNC41ODMzMyAxIDQuODEyNSAxSDExLjE4NzVDMTEuNDE2NyAxIDExLjYwNDIgMS4wODMzMyAxMS43NSAxLjI1QzExLjkxNjcgMS4zOTU4MyAxMiAxLjU4MzMzIDEyIDEuODEyNVY1LjE4NzVDMTIgNS40MTY2NyAxMS45MTY3IDUuNjE0NTggMTEuNzUgNS43ODEyNUMxMS42MDQyIDUuOTI3MDggMTEuNDE2NyA2IDExLjE4NzUgNkg4LjgxMjVWOEgxMy4xODc1QzEzLjY4NzUgOCAxNC4xMTQ2IDguMTc3MDggMTQuNDY4OCA4LjUzMTI1QzE0LjgyMjkgOC44ODU0MiAxNSA5LjMxMjUgMTUgOS44MTI1VjExSDE1LjE4NzVaTTUuNTkzNzUgNC40MDYyNUgxMC40MDYyVjIuNTkzNzVINS41OTM3NVY0LjQwNjI1Wk0yLjQwNjI1IDEyLjU5MzhIMS41OTM3NVYxMy40MDYySDIuNDA2MjVWMTIuNTkzOFpNOC40MDYyNSAxMi41OTM4SDcuNTkzNzVWMTMuNDA2Mkg4LjQwNjI1VjEyLjU5MzhaTTE0LjQwNjIgMTIuNTkzOEgxMy41OTM4VjEzLjQwNjJIMTQuNDA2MlYxMi41OTM4WiIvPiYjeGE7PGRlZnM+JiN4YTs8bGluZWFyR3JhZGllbnQgZ3JhZGllbnRVbml0cz0idXNlclNwYWNlT25Vc2UiIHkyPSIxMS4wOTU1IiB4Mj0iMTUuMTciIHkxPSIyLjMxNjk1IiB4MT0iMi4wNjc4NSIgaWQ9InBhaW50MF9saW5lYXJfOTYzXzU2MSI+JiN4YTs8c3RvcCBzdG9wLWNvbG9yPSIjMjM5NUZGIi8+JiN4YTs8c3RvcCBzdG9wLWNvbG9yPSIjMDA1N0QyIiBvZmZzZXQ9IjEiLz4mI3hhOzwvbGluZWFyR3JhZGllbnQ+JiN4YTs8L2RlZnM+JiN4YTs8L3N2Zz4=;flipH=0;" vertex="1" parent="1">
          <mxGeometry x="650" y="255" width="48" height="48" as="geometry" />
        </mxCell>
        <mxCell id="63hBCq30LjuqY_IQBn-c-10" value="Connect SAP LeanIX&lt;div&gt;&amp;nbsp;with SAP Cloud ALM&lt;/div&gt;" style="text;html=1;align=center;verticalAlign=middle;resizable=0;points=[];autosize=1;strokeColor=none;fillColor=none;" vertex="1" parent="1">
          <mxGeometry x="164" y="330" width="140" height="40" as="geometry" />
        </mxCell>
        <mxCell id="63hBCq30LjuqY_IQBn-c-11" value="Identify your SAP landscape&lt;div&gt;&amp;nbsp;items in the Disovery Inbox&lt;/div&gt;" style="text;html=1;align=center;verticalAlign=middle;resizable=0;points=[];autosize=1;strokeColor=none;fillColor=none;" vertex="1" parent="1">
          <mxGeometry x="295" y="330" width="170" height="40" as="geometry" />
        </mxCell>
        <mxCell id="63hBCq30LjuqY_IQBn-c-12" value="Link, create &amp;amp;&lt;div&gt;&amp;nbsp;enrich Factsheets&lt;/div&gt;" style="text;html=1;align=center;verticalAlign=middle;resizable=0;points=[];autosize=1;strokeColor=none;fillColor=none;" vertex="1" parent="1">
          <mxGeometry x="470" y="330" width="120" height="40" as="geometry" />
        </mxCell>
        <mxCell id="63hBCq30LjuqY_IQBn-c-13" value="Visualize your SAP landscape&amp;nbsp;&lt;div&gt;with SAP architecture diagrams&lt;/div&gt;" style="text;html=1;align=center;verticalAlign=middle;resizable=0;points=[];autosize=1;strokeColor=none;fillColor=none;" vertex="1" parent="1">
          <mxGeometry x="593" y="330" width="190" height="40" as="geometry" />
        </mxCell>
        <mxCell id="63hBCq30LjuqY_IQBn-c-14" value="Connect SAP LeanIX&lt;div&gt;&amp;nbsp;with SAP Cloud ALM&lt;/div&gt;" style="text;html=1;align=center;verticalAlign=middle;resizable=0;points=[];autosize=1;strokeColor=none;fillColor=none;" vertex="1" parent="1">
          <mxGeometry x="910" y="330" width="140" height="40" as="geometry" />
        </mxCell>
        <mxCell id="63hBCq30LjuqY_IQBn-c-15" value="" style="shape=image;verticalLabelPosition=bottom;verticalAlign=top;imageAspect=0;aspect=fixed;image=data:image/svg+xml,PHN2ZyB4bWxucz0iaHR0cDovL3d3dy53My5vcmcvMjAwMC9zdmciIGZpbGw9Im5vbmUiIHZpZXdCb3g9IjAgMCAxNiAxNiIgaGVpZ2h0PSIxNiIgd2lkdGg9IjE2Ij4mI3hhOzxnIGNsaXAtcGF0aD0idXJsKCNjbGlwMF85NjNfNTA1KSI+JiN4YTs8cGF0aCBmaWxsPSJ1cmwoI3BhaW50MF9saW5lYXJfOTYzXzUwNSkiIGQ9Ik0xNS43NDk1IDAuMjUwNzcyQzE1LjkxNjggMC40MTgwOTEgMTYgMC41OTU0MjggMTYgMC43ODI3ODRWMTUuMTg1MkMxNi4wMDAxIDE1LjM5NCAxNS45MjE4IDE1LjU5NTMgMTUuNzgwNiAxNS43NDkyQzE1LjYzNDMgMTUuOTE1NiAxNS40MzU5IDE1Ljk5OTcgMTUuMTg1NCAxNS45OTk3SDQuMDA3NzdDMy43NTcyOCAxNS45OTk3IDMuNTU4OSAxNS45MTU2IDMuNDEzNjEgMTUuNzQ5MkMzLjI3MjAyIDE1LjU5NTUgMy4xOTMzNSAxNS4zOTQyIDMuMTkzMTkgMTUuMTg1MlY1LjYwNDk1QzMuMTkzMTkgNS4zOTU1NSAzLjI3NzM1IDUuMjA4MiAzLjQ0MzY3IDUuMDQwODhMOC4yMzQ5NiAwLjI1MDc3MkM4LjMwNDI3IDAuMTY5NTA4IDguMzkwOTMgMC4xMDQ4MjIgOC40ODg1NSAwLjA2MTQ3MzlDOC41ODYxOCAwLjAxODEyNjIgOC42OTIyOCAtMC4wMDI3NzkyNiA4Ljc5OTA1IDAuMDAwMjk2MjI0SDE1LjE4NTRDMTUuNDE1OSAwLjAwMDI5NjIyNCAxNS42MDMyIDAuMDgzNDU0MyAxNS43NDk1IDAuMjUwNzcyWk0xNC40MDI5IDEuNTk3MzNIOS4xMTE2NUw4Ljc5ODA1IDEuOTA5OTNWNC4wMDc5MkM4Ljc5ODA1IDQuNDQ2NzUgOC42NDE3NCA0LjgyMjQ2IDguMzI5MTQgNS4xMzUwNkM4LjE4MzMzIDUuMjg2MjQgOC4wMDgwOSA1LjQwNTk0IDcuODE0MjIgNS40ODY3NkM3LjYyMDM1IDUuNTY3NTggNy40MTE5OCA1LjYwNzggNy4yMDE5NSA1LjYwNDk1SDUuMTAzODlMNC43OTAyOCA1LjkxNzU1VjE0LjQwMjdIMTQuNDAyOVYxLjU5NzMzWk02LjM4NzM4IDguNzk4MDJDNi4zODczOCA4LjU2ODU5IDYuNDYwNTIgOC4zODEyMyA2LjYwNjggOC4yMzQ5NUM2Ljc1MzA4IDguMDY3NjMgNi45NTE0NyA3Ljk4NDQ4IDcuMjAxOTUgNy45ODQ0OEgxMS45OTIyQzEyLjIyMjcgNy45ODQ0OCAxMi40MSA4LjA2NzYzIDEyLjU1NjMgOC4yMzQ5NUMxMi43MjI3IDguMzgxMjMgMTIuODA2OCA4LjU2ODU5IDEyLjgwNjggOC43OTgwMkMxMi44MDY4IDkuMDI4NDYgMTIuNzIyNyA5LjIxNTgyIDEyLjU1NjMgOS4zNjIxQzEyLjQ4MjMgOS40MzUyNCAxMi4zOTQgOS40OTI0NCAxMi4yOTcgOS41MzAxN0MxMi4yIDkuNTY3OTEgMTIuMDk2MyA5LjU4NTM4IDExLjk5MjIgOS41ODE1MUg3LjIwMTk1QzYuNjU4OSA5LjU4MTUxIDYuMzg3MzggOS4zMjEwMiA2LjM4NzM4IDguNzk4MDJaTTExLjk5MjIgMTEuMjA4NkMxMi4yMjI3IDExLjIwODYgMTIuNDEgMTEuMjkyOCAxMi41NTYzIDExLjQ1OTFDMTIuNjM1MyAxMS41MjM1IDEyLjY5ODggMTEuNjA0OSAxMi43NDIxIDExLjY5NzFDMTIuNzg1NSAxMS43ODk0IDEyLjgwNzYgMTEuODkwMiAxMi44MDY4IDExLjk5MjFDMTIuODA1NiAxMi4wOTgxIDEyLjc4MjcgMTIuMjAyNyAxMi43Mzk3IDEyLjI5OTVDMTIuNjk2NiAxMi4zOTYzIDEyLjYzNDIgMTIuNDgzMyAxMi41NTYzIDEyLjU1NTJDMTIuNDg3IDEyLjYzNjQgMTIuNDAwNCAxMi43MDExIDEyLjMwMjcgMTIuNzQ0NUMxMi4yMDUxIDEyLjc4NzggMTIuMDk5IDEyLjgwODcgMTEuOTkyMiAxMi44MDU2SDcuMjAxOTVDNi45NTE0NyAxMi44MDU2IDYuNzUzMDggMTIuNzIyNSA2LjYwNjggMTIuNTU1MkM2LjQ2NTggMTIuNDAxNSA2LjM4NzUxIDEyLjIwMDYgNi4zODczOCAxMS45OTIxQzYuMzg3MzggMTEuNzgyNyA2LjQ2MDUyIDExLjYwNTQgNi42MDY4IDExLjQ2MDFDNi43NTMwOCAxMS4yOTI4IDYuOTUxNDcgMTEuMjA5NiA3LjIwMTk1IDExLjIwOTZMMTEuOTkyMiAxMS4yMDg2Wk01LjM1NDM3IDAuMjUwNzcyQzUuNTIxNyAwLjQxODA5MSA1LjYwNDg2IDAuNjA1NDQ3IDUuNjA0ODYgMC44MTQ4NDVDNS42MDQ4NiAxLjAwMjIgNS41MjE3IDEuMTc5NTQgNS4zNTQzNyAxLjM0NTg1TDEuNTk3MDkgNS4xMDNWMTUuMTg1MkMxLjU5NzIxIDE1LjM5NCAxLjUxODkgMTUuNTk1MyAxLjM3NzY3IDE1Ljc0OTJDMS4yMzEzOSAxNS45MTU2IDEuMDM0IDE1Ljk5OTcgMC43ODM1MTggMTUuOTk5N0MwLjY3Njc1OCAxNi4wMDI3IDAuNTcwNjggMTUuOTgxOCAwLjQ3MzA2OSAxNS45Mzg0QzAuMzc1NDU3IDE1Ljg5NTEgMC4yODg3OSAxNS44MzA0IDAuMjE5NDI1IDE1Ljc0OTJDMC4wNzgxOTM2IDE1LjU5NTMgLTAuMDAwMTE0NDkxIDE1LjM5NCAxLjI1NjQyZS0wNyAxNS4xODUyVjQuNzkwNEMxLjI1NjQyZS0wNyA0LjU2MDk3IDAuMDg0MTYzMiA0LjM3MzYxIDAuMjUwNDg1IDQuMjI3MzNMNC4yMjcxOSAwLjI1MDc3MkM0LjI5OTE3IDAuMTcyNzc1IDQuMzg2MzUgMC4xMTAzMjEgNC40ODMzNSAwLjA2NzI0NjdDNC41ODAzNiAwLjAyNDE3MjggNC42ODUxNSAwLjAwMTM4OTI5IDQuNzkxMjggMC4wMDAyOTYyMjRDNC45OTk2OSAwLjAwMDI5NjIyNCA1LjE4NzA1IDAuMDgzNDU0MyA1LjM1NDM3IDAuMjUwNzcyWiIvPiYjeGE7PC9nPiYjeGE7PGRlZnM+JiN4YTs8bGluZWFyR3JhZGllbnQgZ3JhZGllbnRVbml0cz0idXNlclNwYWNlT25Vc2UiIHkyPSI5Ljc4NzcyIiB4Mj0iMTYuMTk1OSIgeTE9IjEuNTA1MDkiIHgxPSIyLjA2Nzg1IiBpZD0icGFpbnQwX2xpbmVhcl85NjNfNTA1Ij4mI3hhOzxzdG9wIHN0b3AtY29sb3I9IiMyMzk1RkYiLz4mI3hhOzxzdG9wIHN0b3AtY29sb3I9IiMwMDU3RDIiIG9mZnNldD0iMSIvPiYjeGE7PC9saW5lYXJHcmFkaWVudD4mI3hhOzxjbGlwUGF0aCBpZD0iY2xpcDBfOTYzXzUwNSI+JiN4YTs8cmVjdCBmaWxsPSJ3aGl0ZSIgaGVpZ2h0PSIxNiIgd2lkdGg9IjE2Ii8+JiN4YTs8L2NsaXBQYXRoPiYjeGE7PC9kZWZzPiYjeGE7PC9zdmc+;" vertex="1" parent="1">
          <mxGeometry x="820" y="255" width="48" height="48" as="geometry" />
        </mxCell>
        <mxCell id="63hBCq30LjuqY_IQBn-c-16" value="Create reports&lt;div&gt;to get full transparency&lt;/div&gt;" style="text;html=1;align=center;verticalAlign=middle;resizable=0;points=[];autosize=1;strokeColor=none;fillColor=none;" vertex="1" parent="1">
          <mxGeometry x="774" y="330" width="140" height="40" as="geometry" />
        </mxCell>
        <mxCell id="63hBCq30LjuqY_IQBn-c-17" value="&lt;font size=&quot;1&quot; color=&quot;#0a74f3&quot;&gt;&lt;b style=&quot;&quot;&gt;HandsOn flow&lt;/b&gt;&lt;/font&gt;" style="rounded=1;whiteSpace=wrap;html=1;arcSize=50;strokeColor=#0070f3;fillColor=default;strokeWidth=1.5;" vertex="1" parent="1">
          <mxGeometry x="180" y="180" width="80" height="16" as="geometry" />
        </mxCell>
        <mxCell id="63hBCq30LjuqY_IQBn-c-19" style="edgeStyle=orthogonalEdgeStyle;rounded=0;orthogonalLoop=1;jettySize=auto;html=1;fontSize=18;strokeColor=#5D36FF;fontFamily=Helvetica;fontColor=default;targetPerimeterSpacing=15;endSize=4;startSize=4;endArrow=none;endFill=1;strokeWidth=1;startArrow=none;startFill=0;dashed=1;exitX=1;exitY=0.25;exitDx=0;exitDy=0;entryX=0;entryY=0.5;entryDx=0;entryDy=0;" edge="1" parent="1" source="63hBCq30LjuqY_IQBn-c-17" target="63hBCq30LjuqY_IQBn-c-17">
          <mxGeometry relative="1" as="geometry">
            <mxPoint x="140" y="400" as="targetPoint" />
            <mxPoint x="390" y="140" as="sourcePoint" />
            <Array as="points">
              <mxPoint x="1050" y="184" />
              <mxPoint x="1050" y="440" />
              <mxPoint x="150" y="440" />
              <mxPoint x="150" y="188" />
            </Array>
          </mxGeometry>
        </mxCell>
      </root>
    </mxGraphModel>
  </diagram>
</mxfile>
